Run_40001
nRows=4
nColumns=161

# SIMM Motion File Header:
name Run_40001
datacolumns 161
datarows 4
otherdata 1
range 0.05833300 0.08333300
endheader
time	pelvis_tilt	pelvis_list	pelvis_rotation	pelvis_tx	pelvis_ty	pelvis_tz	hip_flexion_r	hip_adduction_r	hip_rotation_r	knee_angle_r	ankle_angle_r	hip_flexion_l	hip_adduction_l	hip_rotation_l	knee_angle_l	ankle_angle_l	lumbar_extension	lumbar_bending	lumbar_rotation	arm_flex_r	arm_add_r	arm_rot_r	elbow_flex_r	pro_sup_r	arm_flex_l	arm_add_l	arm_rot_l	elbow_flex_l	pro_sup_l	subtalar_angle_r	mtp_angle_r	subtalar_angle_l	mtp_angle_l	wrist_flex_r	wrist_dev_r	wrist_flex_l	wrist_dev_l	LASI_tx	LASI_ty	LASI_tz	RASI_tx	RASI_ty	RASI_tz	LPSI_tx	LPSI_ty	LPSI_tz	RPSI_tx	RPSI_ty	RPSI_tz	RTH1_tx	RTH1_ty	RTH1_tz	RTH3_tx	RTH3_ty	RTH3_tz	LTH1_tx	LTH1_ty	LTH1_tz	LTH2_tx	LTH2_ty	LTH2_tz	LTH3_tx	LTH3_ty	LTH3_tz	RTB1_tx	RTB1_ty	RTB1_tz	RTB2_tx	RTB2_ty	RTB2_tz	RTB3_tx	RTB3_ty	RTB3_tz	LTB1_tx	LTB1_ty	LTB1_tz	LTB2_tx	LTB2_ty	LTB2_tz	LTB3_tx	LTB3_ty	LTB3_tz	RCAL_tx	RCAL_ty	RCAL_tz	RTOE_tx	RTOE_ty	RTOE_tz	RMT5_tx	RMT5_ty	RMT5_tz	LCAL_tx	LCAL_ty	LCAL_tz	LTOE_tx	LTOE_ty	LTOE_tz	LMT5_tx	LMT5_ty	LMT5_tz	LACR_tx	LACR_ty	LACR_tz	RACR_tx	RACR_ty	RACR_tz	CLAV_tx	CLAV_ty	CLAV_tz	C7_tx	C7_ty	C7_tz	RUA1_tx	RUA1_ty	RUA1_tz	RUA2_tx	RUA2_ty	RUA2_tz	RUA3_tx	RUA3_ty	RUA3_tz	RLEL_tx	RLEL_ty	RLEL_tz	RMEL_tx	RMEL_ty	RMEL_tz	LUA1_tx	LUA1_ty	LUA1_tz	LUA2_tx	LUA2_ty	LUA2_tz	LUA3_tx	LUA3_ty	LUA3_tz	LLEL_tx	LLEL_ty	LLEL_tz	LMEL_tx	LMEL_ty	LMEL_tz	RFAsuperior_tx	RFAsuperior_ty	RFAsuperior_tz	RFAradius_tx	RFAradius_ty	RFAradius_tz	RFAulna_tx	RFAulna_ty	RFAulna_tz	LFAsuperior_tx	LFAsuperior_ty	LFAsuperior_tz	LFAradius_tx	LFAradius_ty	LFAradius_tz	LFAulna_tx	LFAulna_ty	LFAulna_tz
      0.05833300	     -1.31229211	      7.62033068	      9.22816900	      0.95360724	      0.93615803	     -0.31261230	      6.68362946	    -13.71444413	    -11.10646404	   -120.68559764	     -4.73967817	     26.98702319	     21.75186685	      4.71787481	    -36.63454063	      8.14958081	    -14.14533844	     -7.97420877	     -7.38093464	    -27.38786364	    -20.94064702	      5.72202353	     77.87369472	    104.33936401	    -39.02523952	    -22.25524177	     -5.08325056	    106.08786358	    113.21442726	      0.00000000	      0.00000000	      0.00000000	      0.00000000	      0.00000000	      0.00000000	      0.00000000	      0.00000000	      0.94532203	      0.97580793	     -0.41902003	      0.98412536	      0.94628821	     -0.19586480	      0.79436556	      0.99758196	     -0.32965881	      0.80887295	      0.98623248	     -0.23296559	      0.92400896	      0.78278602	     -0.12711605	      0.91270966	      0.53036050	     -0.13554491	      0.94063451	      0.78573026	     -0.47225716	      1.03166777	      0.70231844	     -0.44693839	      1.00707536	      0.58216862	     -0.40041969	      0.78935739	      0.43837020	     -0.19696563	      0.74375006	      0.50056763	     -0.14183009	      0.68014847	      0.50026450	     -0.20612630	      1.08744643	      0.38516905	     -0.29531542	      1.04862950	      0.30415635	     -0.35846797	      1.04941365	      0.21953787	     -0.27319095	      0.57694529	      0.65811013	     -0.22537446	      0.46745242	      0.47648235	     -0.23676777	      0.46059151	      0.51189771	     -0.14659662	      0.92711797	      0.10716995	     -0.25529105	      1.13091156	      0.07683956	     -0.23145055	      1.11640879	      0.06313238	     -0.32226874	      0.94566735	      1.41194906	     -0.49768762	      0.97308989	      1.41397927	     -0.10736290	      1.01788980	      1.40305710	     -0.28547333	      0.89793746	      1.47027375	     -0.31303367	      0.90559665	      1.29239372	     -0.04879001	      0.83160234	      1.30430982	     -0.05370361	      0.85702456	      1.22327810	     -0.01724205	      0.81251050	      1.17045890	      0.00986583	      0.76593685	      1.15839477	     -0.05874832	      0.84992868	      1.31030987	     -0.55366521	      0.77221998	      1.29495204	     -0.53780939	      0.81215735	      1.23145037	     -0.56950468	      0.73833332	      1.18704961	     -0.58985724	      0.70823981	      1.19217992	     -0.50874374	      0.88731199	      1.07056272	     -0.02190979	      0.93665281	      0.98439899	     -0.09466379	      0.90587004	      0.94960405	     -0.04143373	      0.83197276	      1.09833271	     -0.57260069	      0.92379213	      1.06027503	     -0.49038571	      0.90433866	      1.01589289	     -0.53840739
      0.06666700	     -2.00118894	      8.43862689	      9.64901511	      0.94957195	      0.93073339	     -0.31346578	     11.18445864	    -15.74569423	    -10.13188522	   -124.90742667	     -4.15361353	     27.52200689	     22.75860318	      3.90541725	    -40.16678211	     10.62424851	    -14.04576729	     -8.75096397	     -9.30013423	    -27.15172443	    -20.47690171	      5.59128277	     73.54978834	    104.47178208	    -36.83349030	    -22.36176134	     -4.52077970	    105.48945852	    112.93813240	      0.00000000	      0.00000000	      0.00000000	      0.00000000	      0.00000000	      0.00000000	      0.00000000	      0.00000000	      0.94242277	      0.97211723	     -0.41941704	      0.98041704	      0.93925497	     -0.19781860	      0.79132668	      0.99426486	     -0.32882645	      0.80564675	      0.98329458	     -0.23172429	      0.92782072	      0.77852528	     -0.12677017	      0.93203098	      0.52731445	     -0.13209766	      0.93395725	      0.78339226	     -0.47311796	      1.02316077	      0.70055182	     -0.44727956	      1.00354990	      0.57849061	     -0.40315667	      0.81362783	      0.43614842	     -0.19514511	      0.76889417	      0.49805469	     -0.13893964	      0.70535866	      0.49871353	     -0.20404186	      1.07299674	      0.38138205	     -0.29511034	      1.02732897	      0.30345543	     -0.35984699	      1.02539761	      0.21608612	     -0.27674654	      0.60185200	      0.65818535	     -0.22272904	      0.49350423	      0.47596666	     -0.23441971	      0.48718867	      0.51059271	     -0.14370771	      0.89537592	      0.10807242	     -0.25487279	      1.09878978	      0.07514119	     -0.23106476	      1.08398042	      0.06236328	     -0.32213725	      0.94929282	      1.40415009	     -0.49930061	      0.96897897	      1.40742194	     -0.10634183	      1.01837364	      1.39711730	     -0.28402429	      0.89970669	      1.46568132	     -0.31428778	      0.89828894	      1.28684636	     -0.04918152	      0.82434677	      1.29809988	     -0.05702558	      0.84764980	      1.21812412	     -0.01756683	      0.80162083	      1.16543296	      0.00782132	      0.75628325	      1.15340830	     -0.06184175	      0.85745350	      1.29818247	     -0.55491815	      0.77875931	      1.28165888	     -0.54231332	      0.82147989	      1.21873629	     -0.57074622	      0.74919699	      1.17269375	     -0.59330996	      0.71528699	      1.17752362	     -0.51321693	      0.87216644	      1.06056422	     -0.01797326	      0.91895687	      0.96979000	     -0.08590177	      0.88481544	      0.93857807	     -0.03259636	      0.84462649	      1.08700439	     -0.57280018	      0.93472478	      1.05188297	     -0.48809833	      0.91732251	      1.00670868	     -0.53621463
      0.07500000	     -2.59635468	      9.14711332	     10.01680069	      0.94577582	      0.92595964	     -0.31418879	     15.74823434	    -17.48814272	     -8.87318369	   -128.58430785	     -3.48267977	     27.45970484	     23.59749331	      3.41253874	    -42.89906940	     12.91865081	    -14.00225244	     -9.38905343	    -11.10944732	    -27.00124681	    -20.00017378	      5.21565236	     69.40101822	    104.96451905	    -34.62970842	    -22.51835664	     -3.99614361	    105.04033624	    112.65578602	      0.00000000	      0.00000000	      0.00000000	      0.00000000	      0.00000000	      0.00000000	      0.00000000	      0.00000000	      0.93951747	      0.96904722	     -0.42006720	      0.97678518	      0.93326994	     -0.19943060	      0.78842285	      0.99142323	     -0.32822031	      0.80256523	      0.98083219	     -0.23079123	      0.93110283	      0.77487032	     -0.12653481	      0.95193116	      0.52583103	     -0.12935888	      0.92684335	      0.78098111	     -0.47355531	      1.01478620	      0.69866802	     -0.44784960	      0.99715129	      0.57462162	     -0.40493308	      0.83834575	      0.43473208	     -0.19358769	      0.79405808	      0.49596630	     -0.13638702	      0.73047013	      0.49709232	     -0.20232886	      1.05684254	      0.37650193	     -0.29500881	      1.00548085	      0.30133407	     -0.36092492	      1.00096812	      0.21220379	     -0.27926269	      0.62499920	      0.65739197	     -0.22014651	      0.51976292	      0.47350507	     -0.23202985	      0.51397281	      0.50710828	     -0.14095022	      0.86332957	      0.10899709	     -0.25461356	      1.06638440	      0.07379506	     -0.23078455	      1.05131364	      0.06172396	     -0.32208453	      0.95281700	      1.39743886	     -0.50035887	      0.96497880	      1.40148820	     -0.10535553	      1.01864226	      1.39187837	     -0.28256018	      0.90112161	      1.46148406	     -0.31525376	      0.89097146	      1.28198678	     -0.04968841	      0.81723769	      1.29285335	     -0.06077559	      0.83806582	      1.21395325	     -0.01839738	      0.79054167	      1.16155140	      0.00561855	      0.74736640	      1.14924533	     -0.06527731	      0.86453112	      1.28777718	     -0.55580777	      0.78540801	      1.26945899	     -0.54598751	      0.83098840	      1.20753002	     -0.57187205	      0.76067999	      1.15928853	     -0.59636931	      0.72312235	      1.16356254	     -0.51759044	      0.85681718	      1.05213819	     -0.01422635	      0.90067322	      0.95679580	     -0.07752853	      0.86347829	      0.92926448	     -0.02412933	      0.85794974	      1.07661247	     -0.57253869	      0.94610786	      1.04485533	     -0.48553845	      0.93107467	      0.99873351	     -0.53360088
      0.08333300	     -3.00720340	      9.63782907	     10.26093091	      0.94232719	      0.92246902	     -0.31473576	     20.29839886	    -18.73389814	     -7.41103817	   -131.49767342	     -2.57113986	     26.56854432	     24.15386030	      3.37678396	    -44.62077539	     15.17189694	    -14.06885031	     -9.73806720	    -12.70473774	    -27.05879351	    -19.53638594	      4.49367619	     65.67243011	    105.99899538	    -32.34650704	    -22.66904103	     -3.49852359	    104.81619002	    112.43856118	      0.00000000	      0.00000000	      0.00000000	      0.00000000	      0.00000000	      0.00000000	      0.00000000	      0.00000000	      0.93660465	      0.96694533	     -0.42106891	      0.97330902	      0.92906261	     -0.20037370	      0.78582529	      0.98933223	     -0.32799180	      0.79962205	      0.97900444	     -0.23040978	      0.93337205	      0.77232655	     -0.12636323	      0.97256603	      0.52705235	     -0.12770063	      0.91933940	      0.77861386	     -0.47353976	      1.00676040	      0.69637041	     -0.44857293	      0.98667198	      0.57053022	     -0.40546785	      0.86360812	      0.43489523	     -0.19255929	      0.81902145	      0.49466552	     -0.13446360	      0.75518376	      0.49542833	     -0.20111916	      1.03830325	      0.37009562	     -0.29491742	      0.98293352	      0.29720563	     -0.36142142	      0.97600194	      0.20769591	     -0.28027324	      0.64519813	      0.65509298	     -0.21766501	      0.54624970	      0.46792605	     -0.22961268	      0.54094181	      0.50020143	     -0.13837204	      0.83083592	      0.10996280	     -0.25460043	      1.03356748	      0.07296492	     -0.23069736	      1.01829992	      0.06126272	     -0.32216901	      0.95619374	      1.39253363	     -0.50056283	      0.96108416	      1.39666035	     -0.10439334	      1.01855854	      1.38780507	     -0.28104646	      0.90199025	      1.45807285	     -0.31579974	      0.88360143	      1.27835033	     -0.05034054	      0.81037065	      1.28928882	     -0.06509129	      0.82819997	      1.21148807	     -0.01989699	      0.77920917	      1.15964465	      0.00320845	      0.73924726	      1.14664933	     -0.06908130	      0.87095140	      1.28008473	     -0.55618687	      0.79221451	      1.25904834	     -0.54838590	      0.84071661	      1.19874604	     -0.57282599	      0.77299135	      1.14760344	     -0.59878664	      0.73215652	      1.15095516	     -0.52164544	      0.84124203	      1.04637094	     -0.01083263	      0.88163968	      0.94662477	     -0.06989190	      0.84187398	      0.92284749	     -0.01640604	      0.87222095	      1.06798973	     -0.57159209	      0.95818095	      1.04020421	     -0.48255521	      0.94600234	      0.99293654	     -0.53035067
